Patient4_TMGait_0pt3_03_left_30_EMG.mot
version=1
nRows=36
nColumns=33
inDegrees=no
endheader
time	1LAddLong	2LGlutMax	3LGlutMed	4LIliopsoas	5LSemiMemb	6LBicFemLong	7LRecFem	8LVastMed	9LVastLat	10LGasMed	11LTibAnt	12lTibPost	13LPeroneusLong	14LSol	15LExtDigLong	16LFlexDigLong	17RAddLong	18RGlutMax	19RGlutMed	20RIliopsoas	21RSemiMemb	22RBicFemLong	23RRecFem	24RVastMed	25RVastLat	26RGasMed	27RTibAnt	28RTibPost	29RPeroneusLong	30RSol	31RExtDigLong	32RFlexDigLong
54.475	-0.002594	-0.10788	-0.12024	0	0.010223	0.016632	0.090179	0.002136	-0.080414	-0.041351	-0.071716	0.00885	-0.070953	0.23834	0.40558	0.010681	0.021515	-0.043793	0.061188	0.059814	0.095215	0.23315	0.10773	-0.4892	-0.19104	-0.013885	-0.031891	-0.009918	-0.059967	0.06897	0.006409	-0.004578
54.476	-0.000763	-0.085907	-0.11047	0.003967	-0.001373	0.048218	0.024414	-0.002899	0.021515	-0.015564	0.090332	0.007782	-0.17181	0.20477	1.1975	0.007629	-0.011292	-0.013123	0.073242	-0.019226	0.41077	0.10315	0.014496	-0.44311	-0.14389	-0.000458	0.10529	-0.007172	-0.10086	0.11337	-0.001526	-0.00824
54.477	0.009308	-0.063019	-0.092468	-0.000305	-0.010681	0.012054	0.063324	-0.011749	0.014496	-0.029755	0.16815	0.005798	-0.026398	0.13001	-0.39505	0.01236	-0.026093	-0.035553	0.22476	-0.064545	0.42175	0.01297	-0.24811	-0.58579	-0.097046	0.019379	0.3241	-0.014496	-0.12009	0.012054	-0.001526	-0.01358
54.478	0.00885	-0.092621	-0.096588	-0.002441	-0.020142	0.039368	0.15595	-0.018616	-0.007019	-0.076599	0.23987	0.006866	0.22095	0.15823	-0.27496	0.005035	-0.003204	0.005646	0.12772	-0.068054	0.36865	-0.048676	-0.32501	-0.47821	-0.042725	0.014801	0.54672	-0.009918	-0.11643	-0.11231	-0.002289	-0.007477
54.479	0.003967	-0.041656	-0.10178	0.006714	-0.026093	0.062714	0.17136	-0.012207	-0.019836	-0.10544	0.00473	0.000153	0.11292	0.15274	-0.24948	-0.015106	0.031891	0.044098	-0.014496	-0.11292	0.27344	-0.059814	-0.22751	-0.2034	-0.019684	0.000916	0.30151	-0.010834	-0.077209	-0.015411	-0.001373	-0.00473
54.48	0.006714	-0.044708	-0.15427	0.00946	-0.019226	0.010834	0.15121	-0.007019	-0.015717	-0.063782	-0.12589	-0.000916	-0.082855	-0.013733	-0.32028	-0.011444	0.03418	0.014038	-0.001373	-0.10803	0.14572	-0.001526	-0.29114	-0.09491	0.033417	-0.012817	0.53467	-0.00885	-0.10162	0.071716	-0.000916	-0.010834
54.481	0.011902	-0.083313	-0.22537	0.031586	0.004272	-0.063629	0.11246	-0.010986	-0.010223	-0.020142	-0.22827	-0.000763	-0.099487	-0.19882	-0.35202	-0.003052	0.002289	0.078125	0.046082	-0.06485	-0.024872	0.098877	-0.32669	0.011139	0.087128	-0.005188	-0.26779	-0.00946	-0.02182	0.09613	-0.002136	-0.007935
54.482	0.008698	-0.087738	-0.23422	0.023346	0.016327	-0.069122	0.14084	-0.009613	-0.034943	-0.021057	-0.17716	-0.003662	0.050659	-0.40482	-0.29694	-0.005646	-0.009613	0.003967	0.14847	-0.079041	0.10437	0.062256	-0.28397	0.13809	0.159	0.001373	-0.97076	-0.0177	0.013885	0.071259	-0.002594	-0.006561
54.483	0.006866	-0.092316	-0.15747	0.023651	0.0177	-0.051727	0.15411	-0.005798	-0.09903	-0.019073	-0.12177	0.006104	0.037079	-0.24918	0.18372	0.005188	-0.0383	0.023346	0.12085	-0.096588	0.015564	0.092621	-0.20325	0.42511	0.28595	0.006409	-0.53528	-0.016479	0.035248	0.028687	-0.001831	-0.002747
54.484	0.000763	-0.057068	-0.032806	-0.004272	0.012512	0.009613	0.14938	-0.001831	-0.112	-0.023956	0.027008	0.012512	-0.066376	-0.063934	0.04425	0.006714	-0.035553	-0.001373	0.031128	-0.14297	-0.008087	0.041504	-0.04837	0.298	0.24841	0.002747	-0.060883	-0.015411	-0.070953	0.077209	-0.00412	-0.005341
54.485	-0.011597	-0.047913	-0.051727	0.000153	-0.010376	0.066223	0.17181	0.00473	-0.10666	-0.011749	0.17807	0.005493	-0.15076	-0.13443	-0.20752	-0.000916	-0.021667	-0.001221	-0.13016	-0.21347	0.074463	0.010681	-0.005493	0.2948	0.16373	-0.00061	0.19806	-0.019226	-0.15274	0.22797	-0.002899	-0.007324
54.486	-0.015564	-0.062714	-0.17197	-0.002441	-0.009613	0.022888	0.11032	0.005341	-0.03891	-0.013733	0.1973	0.004883	-0.11749	-0.19165	-0.12116	-0.011444	-0.014191	0.051422	-0.11932	-0.17807	0.070953	0.039215	-0.048218	0.2417	0.054321	-0.006866	0.49225	-0.021667	-0.089417	0.034332	-0.001831	0.000153
54.487	-0.004272	-0.030365	-0.15808	-0.001526	-0.04715	-0.075378	0.075226	-0.001221	0.10773	-0.03418	-0.048981	0.004272	0.031738	-0.21393	0.7576	0.001526	-0.005188	0.055389	-0.16403	0.04425	0.046082	0.026398	-0.001068	-0.03891	-0.065002	0.00061	0.21393	-0.015259	-0.031128	-0.031586	-0.003052	-0.002747
54.488	0.012817	-0.052948	-0.20111	0.002441	-0.015717	-0.046539	0.084076	-0.006409	0.16052	-0.036926	-0.055847	0.003204	0.028839	-0.2153	-0.21454	0.005493	0.005951	-0.028229	-0.11368	0.22598	0.067749	0.011902	0.068817	-0.06134	-0.17319	0.007324	-0.32074	-0.016479	0.019379	-0.009308	-0.003815	0.001526
54.489	0.02243	-0.063019	-0.16876	0.012054	0.048828	0.057068	0.11673	-0.015717	0.048065	-0.035095	-0.069733	0.009003	-0.028229	-0.1091	-0.079651	-0.000763	-0.006714	-0.047302	-0.10971	0.30945	0.14725	-0.023651	0.089417	0.075073	-0.19913	0.009155	-0.80124	-0.022125	0.24262	-0.01297	-0.001068	0.001373
54.49	0.022583	-0.05127	-0.068207	0.014343	0.10162	0.078125	0.14954	-0.009003	-0.036011	-0.045929	-0.079041	0.006866	-0.038605	-0.001068	0.039063	-0.002747	-0.005493	-0.067749	0.12772	0.15533	0.271	-0.057373	0.21378	-0.10666	-0.20721	0.003662	-0.45075	-0.025482	0.14053	-0.052338	-0.002136	0.000763
54.491	0.020294	-0.055389	-0.089111	-0.001068	0.04837	0.094299	0.15625	-0.004883	-0.042419	-0.047302	-0.039978	0.000153	0.023804	-0.052185	0.15732	0.004272	0.019226	-0.062256	0.22705	0.061493	0.22888	-0.11246	0.29938	-0.084534	-0.1416	0.001678	0.024109	-0.015717	-0.063629	-0.008087	-0.003967	-0.010071
54.492	0.015869	-0.054779	-0.13962	0.011292	0.003357	0.095367	0.11261	-0.00824	-0.027771	-0.018616	-0.031433	0.009308	0.030975	-0.066528	0.17563	-0.007782	0.023499	-0.067444	0.57083	-0.034027	0.20523	-0.07843	0.29159	-0.085144	-0.10407	-0.000305	0.10117	-0.0177	-0.04837	0.057068	-0.005951	-0.002289
54.493	0.005951	-0.017548	-0.18005	0.019989	-0.00946	0.061493	0.052032	-0.004883	-0.01297	0.011292	-0.009003	-0.000153	-0.001221	-0.012817	0.081787	-0.007935	0.018463	-0.043945	0.49805	-0.083008	0.009308	-0.045929	0.072174	-0.11185	-0.097961	-0.00473	0.18509	-0.026245	-0.06958	0.091095	-0.000763	-0.010681
54.494	-0.000763	0.032654	-0.16586	0.005493	0.006561	-0.044403	0.1001	-0.007935	-0.008392	-0.001526	-0.063477	0.006104	0.006256	0.047302	0.020294	0.001373	0.004883	-0.023804	-0.11643	-0.070801	-0.028381	0.003967	0.006714	-0.10132	0.036011	-0.006409	0.29053	-0.010681	-0.11246	0.034027	-0.001221	-0.007782
54.495	-0.012054	-0.005646	-0.093689	-0.00412	0.027161	-0.053864	0.055847	-0.005035	0.006714	-0.015106	-0.036926	-0.003204	-0.011902	0.005035	0.103	-0.01236	0.009766	-0.1088	0.076141	-0.20096	0.082092	0.037537	0.006561	-0.15411	0.18768	-0.002136	0.31052	-0.023346	-0.10971	-0.051575	-0.001678	-0.01358
54.496	-0.02533	-0.077362	0.011749	-0.010681	0.011902	-0.070038	0.10574	-0.010986	-0.010681	-0.000763	0.033722	0.002594	-0.072479	-0.080566	0.050201	-0.014801	0.01709	-0.13351	0.51346	-0.22171	0.11169	0.027161	-0.037537	-0.089874	0.14816	-0.009766	0.21622	-0.019379	-0.040741	-0.057831	-0.000153	-0.020142
54.497	-0.018616	-0.062561	-0.063019	0.002899	-0.009155	-0.024567	0.15823	0.003815	-0.058746	-0.013275	0.065002	-0.006409	-0.11276	-0.058594	0.06073	-0.003662	0.02594	-0.10483	0.35645	-0.13275	0.11093	-0.013123	-0.18936	-0.040131	0.18524	-0.005798	-0.087433	-0.022278	0.047302	-0.0914	-0.002441	-0.014191
54.498	-0.01297	-0.050812	-0.084076	0.014801	0.022583	0.045319	0.10696	0.00824	-0.096741	-0.010071	0.076141	0.009918	-0.080414	-0.051117	0.10788	-0.001373	0.033722	-0.13367	0.18555	0.005188	0.086517	-0.028992	-0.36758	-0.004578	0.23132	0.011292	-0.13275	-0.019073	0.059509	-0.041046	-0.00351	-0.007782
54.499	-0.010986	-0.024109	-0.11322	0.021362	0.044403	0.069122	0.012665	0.004425	-0.086517	-0.010529	0.041046	0.006104	-0.028687	-0.011597	0.084991	0.01297	0.033875	-0.03479	0.2388	0.15656	-0.018463	-0.037231	-0.43457	-0.000305	0.18707	-0.00061	-0.21637	-0.02243	-0.032043	-0.002289	-0.002289	-0.00824
54.5	-0.007477	0.002289	-0.15518	0.014648	0.019836	0.072784	-0.042267	0.010376	-0.002594	-0.020142	0.022125	0.006104	-0.005341	0.03006	0.07309	0.001678	0.063934	-0.06485	0.30426	0.22476	-0.024261	0.00351	-0.12451	0.58289	0.09552	-0.007629	-0.1059	-0.017853	-0.11551	-0.004272	0.001984	-0.010834
54.501	-0.00946	-0.014343	-0.16785	0.022736	-0.04425	0.098877	-0.023499	-0.000916	0.034027	-0.025787	0.021667	0.005035	0.009155	0.030365	0.02594	-0.004578	0.048065	-0.086975	0.19043	0.25635	0.037689	0.075531	-0.049133	0.60974	0.035706	-0.007629	0.003204	-0.017548	-0.1387	0.003662	-0.005341	-0.019684
54.502	-0.026093	0.044861	-0.15625	0.018158	-0.05661	0.077667	0.031128	-0.015106	0.049591	-0.016632	0.028076	-0.001221	0.005646	0.067902	0.00351	-0.008392	0.057526	-0.12894	0.10147	0.21362	0.062256	0.14999	0.026245	0.4892	0.023956	-0.006714	0.50751	-0.016327	-0.034943	-0.063934	-0.003052	-0.004272
54.503	-0.007324	-0.006104	-0.13672	0.009003	-0.009155	0.032043	-0.023651	-0.02243	0.089874	-0.012054	0.031433	-0.001068	-0.015717	0.052795	0.022583	0.003967	0.085602	-0.057983	0.022736	0.076141	0.19165	0.086212	0.018616	0.19928	0.000916	-0.007782	0.66147	-0.019836	0.00946	-0.13748	-0.001984	-0.004883
54.504	0.003967	-0.013885	-0.10315	0.007477	0.027466	-0.034332	-0.028992	-0.023193	0.073547	-0.025787	0.036011	0.015869	-0.033569	0.030823	0.052643	-0.006409	0.10971	-0.063934	0.24445	-0.092621	0.30395	0.045929	0.06485	-0.17807	-0.005493	-0.00946	0.37643	-0.016785	-0.053406	-0.075378	-0.002747	-0.006866
54.505	0.014191	-0.025482	-0.12161	0.014343	0.081329	-0.095673	-0.046539	-0.012207	0.032043	-0.022125	0.028992	0.018616	-0.03067	0.006256	0.090332	-0.000153	0.058441	-0.03952	0.38773	-0.098724	0.3125	0.04715	0.009155	-0.41382	-0.072174	-0.006866	0.048523	-0.015411	-0.013733	-0.097656	-0.003357	-0.001678
54.506	0.02594	-0.031891	-0.12573	0.012207	0.06546	-0.13489	-0.012054	-0.008698	0.019989	-0.016327	0.034485	-0.007019	-0.000916	0.037079	0.074768	-0.001068	-0.024414	0.003357	0.22964	-0.12146	0.30823	0.16449	-0.094757	-0.4837	-0.096893	-0.001831	-0.072937	-0.017242	0.063171	-0.11108	-0.003662	0
54.507	0.01236	-0.016327	-0.13901	0.018616	0.039215	-0.12711	0.050964	-0.010529	0	-0.010376	0.049591	-0.002289	-0.10559	0.031128	0.046844	0.006256	-0.10178	-0.013275	-0.074921	-0.14999	0.27939	0.21927	-0.26032	-0.38422	-0.033722	-0.001678	-0.17899	-0.021362	0.074005	-0.070648	-0.001984	-0.013123
54.508	0.011292	-0.032959	-0.14252	0.012512	0.028992	-0.073395	0.077057	-0.006561	-0.000305	-0.03418	0.024261	0.000916	-0.24414	0.021973	0.019989	0.000153	-0.088196	-0.052643	-0.088501	-0.22446	0.17471	0.19394	-0.28519	-0.39642	0.063629	0.003815	-0.086212	-0.022736	0.007324	0.045776	-0.003815	-0.009918
54.509	0.003052	0.002899	-0.13718	0.011292	0.015564	-0.007172	0.10254	-0.012054	0.000916	-0.032654	0.033569	0.003204	-0.13412	0.007629	0.013123	0.003815	-0.061798	-0.082703	-0.06073	-0.13657	0.11047	0.2121	-0.24674	-0.1062	0.14297	0.001221	-0.003052	-0.01709	-0.019684	0.10513	-0.00351	-0.012512
54.51	-0.004578	-0.029602	-0.1619	0.01236	0.004272	0.053711	0.093536	-0.004425	0.011749	-0.035248	0.025024	-0.007782	0.18463	0.014191	0.009308	-0.005188	-0.046234	-0.002899	-0.058136	0.068817	-0.028229	0.17624	-0.17532	0.016327	0.15976	0.002441	0.055847	-0.021057	-0.049286	0.092926	-0.001526	-0.00885
